{
  "accessors": [
    {
      "bufferView": 2,
      "componentType": 5126,
      "count": 726,
      "max": [
        0.0078670000657439232,
        -0.59949898719787598,
        0.38518598675727844
      ],
      "min": [
        -0.0078710000962018967,
        -0.60377901792526245,
        0.13840100169181824
      ],
      "type": "VEC3"
    },
    {
      "bufferView": 2,
      "byteOffset": 8712,
      "componentType": 5126,
      "count": 726,
      "max": [
        1,
        1,
        1
      ],
      "min": [
        -1,
        -1,
        -1
      ],
      "type": "VEC3"
    },
    {
      "bufferView": 1,
      "componentType": 5126,
      "count": 726,
      "max": [
        0.13835099339485168,
        0.074625998735427856
      ],
      "min": [
        -0.078686997294425964,
        -0.073273003101348877
      ],
      "type": "VEC2"
    },
    {
      "bufferView": 0,
      "componentType": 5125,
      "count": 1980,
      "max": [
        725
      ],
      "min": [
        0
      ],
      "type": "SCALAR"
    },
    {
      "bufferView": 2,
      "byteOffset": 17424,
      "componentType": 5126,
      "count": 4202,
      "max": [
        0.34408199787139893,
        0.6499980092048645,
        1.9499980211257935
      ],
      "min": [
        -0.22066299617290497,
        -0.64999902248382568,
        -0
      ],
      "type": "VEC3"
    },
    {
      "bufferView": 2,
      "byteOffset": 67848,
      "componentType": 5126,
      "count": 4202,
      "max": [
        1,
        1,
        1
      ],
      "min": [
        -1,
        -1,
        -1
      ],
      "type": "VEC3"
    },
    {
      "bufferView": 1,
      "byteOffset": 5808,
      "componentType": 5126,
      "count": 4202,
      "max": [
        6.4850201606750488,
        19.647975921630859
      ],
      "min": [
        -14.605079650878906,
        -3.1213030815124512
      ],
      "type": "VEC2"
    },
    {
      "bufferView": 0,
      "byteOffset": 7920,
      "componentType": 5125,
      "count": 14622,
      "max": [
        4201
      ],
      "min": [
        0
      ],
      "type": "SCALAR"
    },
    {
      "bufferView": 2,
      "byteOffset": 118272,
      "componentType": 5126,
      "count": 176,
      "max": [
        0.13367299735546112,
        -0,
        1.9399980306625366
      ],
      "min": [
        -0.13367600739002228,
        -0.59508901834487915,
        0.97630602121353149
      ],
      "type": "VEC3"
    },
    {
      "bufferView": 2,
      "byteOffset": 120384,
      "componentType": 5126,
      "count": 176,
      "max": [
        0.99986660480499268,
        1,
        1
      ],
      "min": [
        -0.99986755847930908,
        -0.99999940395355225,
        -1
      ],
      "type": "VEC3"
    },
    {
      "bufferView": 1,
      "byteOffset": 39424,
      "componentType": 5126,
      "count": 176,
      "max": [
        6.0917878150939941,
        9.737605094909668
      ],
      "min": [
        -6.0917878150939941,
        -1.3134479522705078
      ],
      "type": "VEC2"
    },
    {
      "bufferView": 0,
      "byteOffset": 66408,
      "componentType": 5125,
      "count": 468,
      "max": [
        175
      ],
      "min": [
        0
      ],
      "type": "SCALAR"
    },
    {
      "bufferView": 2,
      "byteOffset": 122496,
      "componentType": 5126,
      "count": 2930,
      "max": [
        0.20564000308513641,
        0.60559999942779541,
        1.9499980211257935
      ],
      "min": [
        -0.20564000308513641,
        -0.60906398296356201,
        -0
      ],
      "type": "VEC3"
    },
    {
      "bufferView": 2,
      "byteOffset": 157656,
      "componentType": 5126,
      "count": 2930,
      "max": [
        1,
        1,
        1
      ],
      "min": [
        -1,
        -1,
        -1
      ],
      "type": "VEC3"
    },
    {
      "bufferView": 1,
      "byteOffset": 40832,
      "componentType": 5126,
      "count": 2930,
      "max": [
        19.086187362670898,
        19.165002822875977
      ],
      "min": [
        -19.165012359619141,
        -5.915952205657959
      ],
      "type": "VEC2"
    },
    {
      "bufferView": 0,
      "byteOffset": 68280,
      "componentType": 5125,
      "count": 10656,
      "max": [
        2929
      ],
      "min": [
        0
      ],
      "type": "SCALAR"
    },
    {
      "bufferView": 2,
      "byteOffset": 192816,
      "componentType": 5126,
      "count": 1210,
      "max": [
        0.43779200315475464,
        0.37218299508094788,
        0.10045000165700912
      ],
      "min": [
        -0.30449199676513672,
        -0.37218299508094788,
        -0.068400003015995026
      ],
      "type": "VEC3"
    },
    {
      "bufferView": 2,
      "byteOffset": 207336,
      "componentType": 5126,
      "count": 1210,
      "max": [
        1,
        1,
        1
      ],
      "min": [
        -1,
        -1,
        -1
      ],
      "type": "VEC3"
    },
    {
      "bufferView": 1,
      "byteOffset": 64272,
      "componentType": 5126,
      "count": 1210,
      "max": [
        3.6480000019073486,
        11.576504707336426
      ],
      "min": [
        -7.2814698219299316,
        -11.576504707336426
      ],
      "type": "VEC2"
    },
    {
      "bufferView": 0,
      "byteOffset": 110904,
      "componentType": 5125,
      "count": 3390,
      "max": [
        1209
      ],
      "min": [
        0
      ],
      "type": "SCALAR"
    },
    {
      "bufferView": 2,
      "byteOffset": 221856,
      "componentType": 5126,
      "count": 1216,
      "max": [
        0.21632599830627441,
        0.56023502349853516,
        1.906548023223877
      ],
      "min": [
        -0.20941099524497986,
        -0.56196898221969604,
        -0
      ],
      "type": "VEC3"
    },
    {
      "bufferView": 2,
      "byteOffset": 236448,
      "componentType": 5126,
      "count": 1216,
      "max": [
        1,
        1,
        1
      ],
      "min": [
        -1,
        -1,
        -1
      ],
      "type": "VEC3"
    },
    {
      "bufferView": 1,
      "byteOffset": 73952,
      "componentType": 5126,
      "count": 1216,
      "max": [
        18.808738708496094,
        19.571117401123047
      ],
      "min": [
        -18.808738708496094,
        -5.8142619132995605
      ],
      "type": "VEC2"
    },
    {
      "bufferView": 0,
      "byteOffset": 124464,
      "componentType": 5125,
      "count": 4848,
      "max": [
        1215
      ],
      "min": [
        0
      ],
      "type": "SCALAR"
    },
    {
      "bufferView": 2,
      "byteOffset": 251040,
      "componentType": 5126,
      "count": 656,
      "max": [
        0.014271999709308147,
        -0.52450001239776611,
        0.96259099245071411
      ],
      "min": [
        -0.014267999678850174,
        -0.59949898719787598,
        0.80522501468658447
      ],
      "type": "VEC3"
    },
    {
      "bufferView": 2,
      "byteOffset": 258912,
      "componentType": 5126,
      "count": 656,
      "max": [
        1,
        1,
        1
      ],
      "min": [
        -1,
        -1,
        -1
      ],
      "type": "VEC3"
    },
    {
      "bufferView": 1,
      "byteOffset": 83680,
      "componentType": 5126,
      "count": 656,
      "max": [
        0.60626602172851562,
        0.80000001192092896
      ],
      "min": [
        -0.26078701019287109,
        -0.3310999870300293
      ],
      "type": "VEC2"
    },
    {
      "bufferView": 0,
      "byteOffset": 143856,
      "componentType": 5125,
      "count": 1752,
      "max": [
        655
      ],
      "min": [
        0
      ],
      "type": "SCALAR"
    }
  ],
  "asset": {
    "extras": {
      "author": "rtql8d (https://sketchfab.com/rtql8d)",
      "license": "CC-BY-4.0 (http://creativecommons.org/licenses/by/4.0/)",
      "source": "https://sketchfab.com/3d-models/ps5-d788de3735964151a3e24fd59c0f1956",
      "title": "PS5"
    },
    "generator": "Sketchfab-9.47.0",
    "version": "2.0"
  },
  "bufferViews": [
    {
      "buffer": 0,
      "byteLength": 150864,
      "byteOffset": 0,
      "name": "floatBufferViews",
      "target": 34963
    },
    {
      "buffer": 0,
      "byteLength": 88928,
      "byteOffset": 150864,
      "byteStride": 8,
      "name": "floatBufferViews",
      "target": 34962
    },
    {
      "buffer": 0,
      "byteLength": 266784,
      "byteOffset": 239792,
      "byteStride": 12,
      "name": "floatBufferViews",
      "target": 34962
    }
  ],
  "buffers": [
    {
      "byteLength": 506576,
      "uri": "scene.bin"
    }
  ],
  "materials": [
    {
      "doubleSided": true,
      "emissiveFactor": [
        0,
        0,
        0
      ],
      "name": "Glass_-_Heavy_Color",
      "pbrMetallicRoughness": {
        "baseColorFactor": [
          0,
          0,
          0,
          1
        ],
        "metallicFactor": 0.80000000000000004,
        "roughnessFactor": 0.19999999999999996
      }
    },
    {
      "doubleSided": true,
      "name": "Plastic_-_Textured_-_Regular",
      "pbrMetallicRoughness": {
        "baseColorFactor": [
          0.8069522576692516,
          0.79910273801440879,
          0.92158185627729461,
          1
        ],
        "metallicFactor": 0,
        "roughnessFactor": 0.59999999999999998
      }
    },
    {
      "doubleSided": true,
      "name": "Plastic_-_Translucent_Glossy_Blue",
      "pbrMetallicRoughness": {
        "baseColorFactor": [
          0,
          0.031896033073011511,
          0.44520119451622753,
          1
        ],
        "metallicFactor": 0,
        "roughnessFactor": 0.84349154199267129
      }
    },
    {
      "doubleSided": true,
      "name": "Plastic_-_Translucent_Glossy_Gray",
      "pbrMetallicRoughness": {
        "baseColorFactor": [
          0,
          0,
          0,
          1
        ],
        "metallicFactor": 0.80000000000000004,
        "roughnessFactor": 0.19999999999999996
      }
    },
    {
      "doubleSided": true,
      "emissiveFactor": [
        0,
        0,
        0
      ],
      "name": "Plastic_-_Translucent_Matte_Gray",
      "pbrMetallicRoughness": {
        "baseColorFactor": [
          0,
          0,
          0,
          1
        ],
        "metallicFactor": 0,
        "roughnessFactor": 0.80000000000000004
      }
    },
    {
      "doubleSided": true,
      "emissiveFactor": [
        0,
        0,
        0
      ],
      "name": "Plastic_-_Translucent_Matte_Gray_1",
      "pbrMetallicRoughness": {
        "baseColorFactor": [
          0,
          0,
          0,
          1
        ],
        "metallicFactor": 0,
        "roughnessFactor": 0.80000000000000004
      }
    },
    {
      "doubleSided": true,
      "name": "Steel_-_Satin",
      "pbrMetallicRoughness": {
        "baseColorFactor": [
          0.18447499449999999,
          0.18447499449999999,
          0.18447499449999999,
          1
        ],
        "metallicFactor": 0.80000000000000004,
        "roughnessFactor": 0.59999999999999998
      }
    }
  ],
  "meshes": [
    {
      "primitives": [
        {
          "attributes": {
            "NORMAL": 1,
            "POSITION": 0,
            "TEXCOORD_0": 2
          },
          "indices": 3,
          "material": 0,
          "mode": 4
        }
      ]
    },
    {
      "primitives": [
        {
          "attributes": {
            "NORMAL": 5,
            "POSITION": 4,
            "TEXCOORD_0": 6
          },
          "indices": 7,
          "material": 1,
          "mode": 4
        }
      ]
    },
    {
      "primitives": [
        {
          "attributes": {
            "NORMAL": 9,
            "POSITION": 8,
            "TEXCOORD_0": 10
          },
          "indices": 11,
          "material": 2,
          "mode": 4
        }
      ]
    },
    {
      "primitives": [
        {
          "attributes": {
            "NORMAL": 13,
            "POSITION": 12,
            "TEXCOORD_0": 14
          },
          "indices": 15,
          "material": 3,
          "mode": 4
        }
      ]
    },
    {
      "primitives": [
        {
          "attributes": {
            "NORMAL": 17,
            "POSITION": 16,
            "TEXCOORD_0": 18
          },
          "indices": 19,
          "material": 4,
          "mode": 4
        }
      ]
    },
    {
      "primitives": [
        {
          "attributes": {
            "NORMAL": 21,
            "POSITION": 20,
            "TEXCOORD_0": 22
          },
          "indices": 23,
          "material": 5,
          "mode": 4
        }
      ]
    },
    {
      "primitives": [
        {
          "attributes": {
            "NORMAL": 25,
            "POSITION": 24,
            "TEXCOORD_0": 26
          },
          "indices": 27,
          "material": 6,
          "mode": 4
        }
      ]
    }
  ],
  "nodes": [
    {
      "children": [
        1
      ],
      "name": "RootNode (gltf orientation matrix)",
      "rotation": [
        -0.70710678118654746,
        -0,
        -0,
        0.70710678118654757
      ]
    },
    {
      "children": [
        2
      ],
      "matrix": [
        1,
        0,
        0,
        0,
        0,
        0.99999970197677612,
        0.00077265140134841204,
        0,
        0,
        -0.00077265140134841204,
        0.99999970197677612,
        0,
        0,
        -197.45321655273438,
        -199.06666564941406,
        1
      ],
      "name": "RootNode (model correction matrix)"
    },
    {
      "children": [
        3,
        4,
        5,
        6,
        7,
        8,
        9
      ],
      "name": "PS5.obj.cleaner.materialmerger.gles"
    },
    {
      "mesh": 0,
      "name": ""
    },
    {
      "mesh": 1,
      "name": ""
    },
    {
      "mesh": 2,
      "name": ""
    },
    {
      "mesh": 3,
      "name": ""
    },
    {
      "mesh": 4,
      "name": ""
    },
    {
      "mesh": 5,
      "name": ""
    },
    {
      "mesh": 6,
      "name": ""
    }
  ],
  "scene": 0,
  "scenes": [
    {
      "name": "OSG_Scene",
      "nodes": [
        0
      ]
    }
  ]
}

